<svg width="152.3874786376953px" height="115.32748107910156px" xmlns="http://www.w3.org/2000/svg" viewBox="173.80626068115237 17.33625946044922 152.3874786376953 115.32748107910156" style="background: rgba(0, 0, 0, 0);" preserveAspectRatio="xMidYMid"><defs><filter id="editing-hole" x="-100%" y="-100%" width="300%" height="300%"><feFlood flood-color="#000" result="black"></feFlood><feMorphology operator="dilate" radius="2" in="SourceGraphic" result="erode"></feMorphology><feGaussianBlur in="erode" stdDeviation="4" result="blur"></feGaussianBlur><feOffset in="blur" dx="2" dy="2" result="offset"></feOffset><feComposite operator="atop" in="offset" in2="black" result="merge"></feComposite><feComposite operator="in" in="merge" in2="SourceGraphic" result="inner-shadow"></feComposite></filter></defs><g filter="url(#editing-hole)"><g transform="translate(201.52000164985657, 97.78499984741211)"><path d="M44.48-32.77L30.08-32.77L30.08 0L15.94 0L15.94-32.77L1.47-32.77L1.47-44.03L44.48-44.03L44.48-32.77ZM73.09-44.80L73.09-44.80Q79.42-44.80 84.48-42.88L84.48-42.88L84.48-42.88Q89.54-40.96 92.51-37.22L92.51-37.22L92.51-37.22Q95.49-33.47 95.49-28.10L95.49-28.10L81.98-28.10L81.98-28.10Q81.98-30.85 79.55-32.54L79.55-32.54L79.55-32.54Q77.12-34.24 73.66-34.24L73.66-34.24L73.66-34.24Q68.67-34.24 66.11-31.58L66.11-31.58L66.11-31.58Q63.55-28.93 63.55-24.06L63.55-24.06L63.55-19.97L63.55-19.97Q63.55-15.10 66.11-12.45L66.11-12.45L66.11-12.45Q68.67-9.79 73.66-9.79L73.66-9.79L73.66-9.79Q77.12-9.79 79.55-11.42L79.55-11.42L79.55-11.42Q81.98-13.06 81.98-15.62L81.98-15.62L72-15.62L72-24.58L95.49-24.58L95.49 0L88.19 0L86.78-4.35L86.78-4.35Q80.77 0.77 71.04 0.77L71.04 0.77L71.04 0.77Q60.10 0.77 54.59-4.96L54.59-4.96L54.59-4.96Q49.09-10.69 49.09-22.02L49.09-22.02L49.09-22.02Q49.09-33.22 55.33-39.01L55.33-39.01L55.33-39.01Q61.57-44.80 73.09-44.80L73.09-44.80Z" fill="#ccc"></path></g></g><style>text {
  font-size: 64px;
  font-family: Arial Black;
  dominant-baseline: central;
  text-anchor: middle;
}</style></svg>